<svg xmlns="http://www.w3.org/2000/svg" viewBox="0 -0.5 10 10" shape-rendering="crispEdges">
<metadata>Made with Pixels to Svg https://codepen.io/shshaw/pen/XbxvNj</metadata>
<path stroke="#000000" d="M1 0h1M3 0h1M6 0h1M8 0h1M1 1h2M4 1h2M7 1h2M0 2h1M2 2h1M4 2h2M7 2h1M9 2h1M1 3h2M7 3h2M1 4h1M8 4h1M1 5h1M3 5h1M6 5h1M8 5h1M0 6h1M3 6h1M6 6h1M9 6h1M0 7h2M8 7h2M1 8h2M4 8h2M7 8h2M0 9h1M3 9h1M6 9h1M9 9h1" />
<path stroke="#ba6cca" d="M2 0h1M3 1h1M1 2h1M3 2h1M0 3h1M3 3h1M0 4h1M2 4h1M0 5h1M2 5h1M1 6h2M2 7h1M0 8h1M3 8h1M1 9h1" />
<path stroke="#8f489e" d="M7 0h1M6 1h1M6 2h1M8 2h1M6 3h1M9 3h1M7 4h1M9 4h1M7 5h1M9 5h1M7 6h2M7 7h1M6 8h1M9 8h1M8 9h1" />
<path stroke="#a75ab7" d="M4 3h2M3 4h4M4 5h2M4 6h2M3 7h4M7 9h1" />
<path stroke="#a555b6" d="M2 9h1" />
</svg>